<?xml version="1.0" encoding="UTF-8"?>
<!DOCTYPE svg PUBLIC "-//W3C//DTD SVG 1.1//EN" "http://www.w3.org/Graphics/SVG/1.1/DTD/svg11.dtd">
<svg xmlns="http://www.w3.org/2000/svg" version="1.1" width="512px" height="512px" style="shape-rendering:geometricPrecision; text-rendering:geometricPrecision; image-rendering:optimizeQuality; fill-rule:evenodd; clip-rule:evenodd" xmlns:xlink="http://www.w3.org/1999/xlink">
<g><path style="opacity:0.987" fill="#1e1e1b" d="M 168.5,-0.5 C 175.833,-0.5 183.167,-0.5 190.5,-0.5C 216.935,6.10265 233.101,22.7693 239,49.5C 239.5,174.166 239.667,298.833 239.5,423.5C 244.833,423.5 250.167,423.5 255.5,423.5C 255.5,428.833 255.5,434.167 255.5,439.5C 204.5,439.5 153.5,439.5 102.5,439.5C 102.5,434.167 102.5,428.833 102.5,423.5C 108.167,423.5 113.833,423.5 119.5,423.5C 119.333,298.5 119.5,173.5 120,48.5C 126.348,22.3193 142.515,5.98594 168.5,-0.5 Z"/></g>
<g><path style="opacity:1" fill="#faaf48" d="M 191.5,17.5 C 191.5,46.1667 191.5,74.8333 191.5,103.5C 191.5,116.833 191.5,130.167 191.5,143.5C 191.5,146.167 191.5,148.833 191.5,151.5C 186.167,151.5 180.833,151.5 175.5,151.5C 175.5,156.833 175.5,162.167 175.5,167.5C 180.833,167.5 186.167,167.5 191.5,167.5C 191.5,196.833 191.5,226.167 191.5,255.5C 191.5,260.833 191.5,266.167 191.5,271.5C 191.5,303.5 191.5,335.5 191.5,367.5C 188.833,367.5 186.167,367.5 183.5,367.5C 183.5,380.833 183.5,394.167 183.5,407.5C 186.167,407.5 188.833,407.5 191.5,407.5C 191.5,412.833 191.5,418.167 191.5,423.5C 172.833,423.5 154.167,423.5 135.5,423.5C 135.333,299.166 135.5,174.833 136,50.5C 144.135,24.8439 161.635,13.3439 188.5,16C 189.527,16.5133 190.527,17.0133 191.5,17.5 Z"/></g>
<g><path style="opacity:0.963" fill="#1d1d1b" d="M 432.5,15.5 C 451.103,13.1243 461.436,21.1243 463.5,39.5C 462.548,54.4521 454.548,62.4521 439.5,63.5C 428.446,63.3095 420.779,58.1428 416.5,48C 397.503,47.5001 378.503,47.3334 359.5,47.5C 359.5,42.1667 359.5,36.8333 359.5,31.5C 378.503,31.6666 397.503,31.4999 416.5,31C 419.747,23.5854 425.08,18.4187 432.5,15.5 Z"/></g>
<g><path style="opacity:1" fill="#f99b1c" d="M 191.5,17.5 C 208.248,22.4169 218.748,33.4169 223,50.5C 223.5,174.833 223.667,299.166 223.5,423.5C 212.833,423.5 202.167,423.5 191.5,423.5C 191.5,418.167 191.5,412.833 191.5,407.5C 194.167,407.5 196.833,407.5 199.5,407.5C 199.5,394.167 199.5,380.833 199.5,367.5C 196.833,367.5 194.167,367.5 191.5,367.5C 191.5,335.5 191.5,303.5 191.5,271.5C 196.833,271.5 202.167,271.5 207.5,271.5C 207.5,266.167 207.5,260.833 207.5,255.5C 202.167,255.5 196.833,255.5 191.5,255.5C 191.5,226.167 191.5,196.833 191.5,167.5C 191.5,162.167 191.5,156.833 191.5,151.5C 191.5,148.833 191.5,146.167 191.5,143.5C 196.833,143.5 202.167,143.5 207.5,143.5C 207.5,130.167 207.5,116.833 207.5,103.5C 202.167,103.5 196.833,103.5 191.5,103.5C 191.5,74.8333 191.5,46.1667 191.5,17.5 Z"/></g>
<g><path style="opacity:0.978" fill="#7b7b52" d="M 335.5,31.5 C 341.167,31.5 346.833,31.5 352.5,31.5C 352.5,36.8333 352.5,42.1667 352.5,47.5C 346.833,47.5 341.167,47.5 335.5,47.5C 335.5,42.1667 335.5,36.8333 335.5,31.5 Z"/></g>
<g><path style="opacity:1" fill="#f2aa47" d="M 436.5,31.5 C 444.709,30.8724 448.209,34.5391 447,42.5C 442.049,49.1541 437.049,49.1541 432,42.5C 430.776,37.626 432.276,33.9593 436.5,31.5 Z"/></g>
<g><path style="opacity:0.974" fill="#1d1d1b" d="M 335.5,54.5 C 340.833,54.5 346.167,54.5 351.5,54.5C 351.334,60.1764 351.501,65.8431 352,71.5C 372.161,76.9996 382.661,90.1662 383.5,111C 383.453,124.928 377.953,136.094 367,144.5C 364.243,168.147 361.743,191.814 359.5,215.5C 348.833,215.5 338.167,215.5 327.5,215.5C 325.404,191.799 322.904,168.132 320,144.5C 316.5,142.333 313.667,139.5 311.5,136C 295.503,135.5 279.503,135.333 263.5,135.5C 263.5,138.167 263.5,140.833 263.5,143.5C 258.167,143.5 252.833,143.5 247.5,143.5C 247.5,124.5 247.5,105.5 247.5,86.5C 252.833,86.5 258.167,86.5 263.5,86.5C 263.5,89.5 263.5,92.5 263.5,95.5C 277.837,95.6666 292.171,95.4999 306.5,95C 312.579,83.0404 322.079,75.2071 335,71.5C 335.499,65.8431 335.666,60.1764 335.5,54.5 Z"/></g>
<g><path style="opacity:1" fill="#201f1b" d="M 151.5,71.5 C 156.833,71.5 162.167,71.5 167.5,71.5C 167.5,127.5 167.5,183.5 167.5,239.5C 162.167,239.5 156.833,239.5 151.5,239.5C 151.5,183.5 151.5,127.5 151.5,71.5 Z"/></g>
<g><path style="opacity:1" fill="#fbfbfb" d="M 337.5,87.5 C 358.645,86.4781 368.479,96.4781 367,117.5C 362.056,131.394 352.222,137.228 337.5,135C 320.705,127.618 315.871,115.451 323,98.5C 326.857,93.4678 331.69,89.8011 337.5,87.5 Z"/></g>
<g><path style="opacity:1" fill="#211f1b" d="M 191.5,103.5 C 196.833,103.5 202.167,103.5 207.5,103.5C 207.5,116.833 207.5,130.167 207.5,143.5C 202.167,143.5 196.833,143.5 191.5,143.5C 191.5,130.167 191.5,116.833 191.5,103.5 Z"/></g>
<g><path style="opacity:1" fill="#20201e" d="M 335.5,103.5 C 340.833,103.5 346.167,103.5 351.5,103.5C 351.5,108.833 351.5,114.167 351.5,119.5C 346.167,119.5 340.833,119.5 335.5,119.5C 335.5,114.167 335.5,108.833 335.5,103.5 Z"/></g>
<g><path style="opacity:1" fill="#595a27" d="M 263.5,111.5 C 276.833,111.5 290.167,111.5 303.5,111.5C 303.5,114.167 303.5,116.833 303.5,119.5C 290.167,119.5 276.833,119.5 263.5,119.5C 263.5,116.833 263.5,114.167 263.5,111.5 Z"/></g>
<g><path style="opacity:1" fill="#201f1b" d="M 191.5,151.5 C 191.5,156.833 191.5,162.167 191.5,167.5C 186.167,167.5 180.833,167.5 175.5,167.5C 175.5,162.167 175.5,156.833 175.5,151.5C 180.833,151.5 186.167,151.5 191.5,151.5 Z"/></g>
<g><path style="opacity:1" fill="#797952" d="M 337.5,151.5 C 341.5,151.5 345.5,151.5 349.5,151.5C 348.156,167.595 346.156,183.595 343.5,199.5C 340.989,183.57 338.989,167.57 337.5,151.5 Z"/></g>
<g><path style="opacity:0.983" fill="#1c1d1a" d="M 335.5,223.5 C 340.833,223.5 346.167,223.5 351.5,223.5C 351.5,228.833 351.5,234.167 351.5,239.5C 346.167,239.5 340.833,239.5 335.5,239.5C 335.5,234.167 335.5,228.833 335.5,223.5 Z"/></g>
<g><path style="opacity:1" fill="#201e1b" d="M 191.5,255.5 C 196.833,255.5 202.167,255.5 207.5,255.5C 207.5,260.833 207.5,266.167 207.5,271.5C 202.167,271.5 196.833,271.5 191.5,271.5C 191.5,266.167 191.5,260.833 191.5,255.5 Z"/></g>
<g><path style="opacity:0.988" fill="#1e1d1b" d="M 431.5,511.5 C 303.5,511.5 175.5,511.5 47.5,511.5C 47.5,490.167 47.5,468.833 47.5,447.5C 129.833,447.5 212.167,447.5 294.5,447.5C 292.221,383.476 289.555,319.476 286.5,255.5C 324.5,255.5 362.5,255.5 400.5,255.5C 397.556,319.484 394.89,383.484 392.5,447.5C 405.5,447.5 418.5,447.5 431.5,447.5C 431.5,468.833 431.5,490.167 431.5,511.5 Z M 304.5,271.5 C 330.5,271.5 356.5,271.5 382.5,271.5C 382.736,279.542 382.403,287.542 381.5,295.5C 356.167,295.5 330.833,295.5 305.5,295.5C 304.677,287.529 304.344,279.529 304.5,271.5 Z"/></g>
<g><path style="opacity:1" fill="#201f1b" d="M 167.5,335.5 C 167.5,322.167 167.5,308.833 167.5,295.5C 172.833,295.5 178.167,295.5 183.5,295.5C 183.5,308.833 183.5,322.167 183.5,335.5C 178.167,335.5 172.833,335.5 167.5,335.5 Z"/></g>
<g><path style="opacity:1" fill="#fdfdfd" d="M 305.5,311.5 C 330.833,311.5 356.167,311.5 381.5,311.5C 381.5,316.833 381.5,322.167 381.5,327.5C 356.167,327.5 330.833,327.5 305.5,327.5C 305.5,322.167 305.5,316.833 305.5,311.5 Z"/></g>
<g><path style="opacity:1" fill="#201f1b" d="M 167.5,335.5 C 167.5,340.833 167.5,346.167 167.5,351.5C 162.167,351.5 156.833,351.5 151.5,351.5C 151.5,346.167 151.5,340.833 151.5,335.5C 156.833,335.5 162.167,335.5 167.5,335.5 Z"/></g>
<g><path style="opacity:1" fill="#faaf48" d="M 343.5,343.5 C 343.5,378.167 343.5,412.833 343.5,447.5C 332.5,447.5 321.5,447.5 310.5,447.5C 309.722,412.827 308.722,378.16 307.5,343.5C 319.5,343.5 331.5,343.5 343.5,343.5 Z"/></g>
<g><path style="opacity:1" fill="#f99b1c" d="M 343.5,343.5 C 355.833,343.5 368.167,343.5 380.5,343.5C 378.39,378.134 377.057,412.8 376.5,447.5C 365.5,447.5 354.5,447.5 343.5,447.5C 343.5,412.833 343.5,378.167 343.5,343.5 Z"/></g>
<g><path style="opacity:1" fill="#201f1b" d="M 191.5,367.5 C 194.167,367.5 196.833,367.5 199.5,367.5C 199.5,380.833 199.5,394.167 199.5,407.5C 196.833,407.5 194.167,407.5 191.5,407.5C 188.833,407.5 186.167,407.5 183.5,407.5C 183.5,394.167 183.5,380.833 183.5,367.5C 186.167,367.5 188.833,367.5 191.5,367.5 Z"/></g>
<g><path style="opacity:1" fill="#7a7b52" d="M 247.5,463.5 C 247.5,474.167 247.5,484.833 247.5,495.5C 186.167,495.5 124.833,495.5 63.5,495.5C 63.5,484.833 63.5,474.167 63.5,463.5C 124.833,463.5 186.167,463.5 247.5,463.5 Z"/></g>
<g><path style="opacity:1" fill="#595a27" d="M 247.5,463.5 C 303.5,463.5 359.5,463.5 415.5,463.5C 415.5,474.167 415.5,484.833 415.5,495.5C 359.5,495.5 303.5,495.5 247.5,495.5C 247.5,484.833 247.5,474.167 247.5,463.5 Z"/></g>
</svg>
